<svg width="84" height="93" viewBox="0 0 84 93" fill="none" xmlns="http://www.w3.org/2000/svg">
<path fill-rule="evenodd" clip-rule="evenodd" d="M26.6519 53.0518V26.6432H64.7526V19.0296H19.0283L19.0412 57.4263C32.9979 65.4849 46.9535 73.5433 60.91 81.6004L83.7864 68.3902L83.7851 0H0.00195312L0 68.3902L22.8749 81.5991L38.0822 72.8194L30.4915 68.4362L22.8837 72.8295L7.60941 64.0114L7.61533 7.61359H76.1728L76.1772 64.0114L60.8985 72.8323C49.4827 66.2389 38.0664 59.6481 26.6519 53.0518ZM38.0851 45.6927H57.1347V53.0518L45.6971 59.6569L53.2892 64.0399L64.7456 57.4263L64.7526 38.0764H38.0851V45.6927ZM49.4926 88.1925L41.8935 83.8051L34.294 88.1925L41.8935 92.5799L49.4926 88.1925Z" fill="#C61D35"/>
</svg>
